<?xml version="1.0" encoding="utf-8"?>
<!-- Generator: Adobe Illustrator 26.0.3, SVG Export Plug-In . SVG Version: 6.00 Build 0)  -->
<svg version="1.1" id="Layer_1" xmlns="http://www.w3.org/2000/svg" xmlns:xlink="http://www.w3.org/1999/xlink" x="0px" y="0px"
	 viewBox="0 0 681.65 308.66" style="enable-background:new 0 0 681.65 308.66;" xml:space="preserve">
<style type="text/css">
	.st0{fill:#FFFFFF;}
</style>
<g>
	<polyline class="st0" points="370.16,248.5 370.16,183.45 348.34,183.45 348.34,235.18 	"/>
	<path class="st0" d="M653.58,270.36V38.3h22.44v232.06H653.58z"/>
	<path class="st0" d="M27.21,82.99h-0.02V60.11h9.32h26.88V38.33c0,0-35.07,0-42.03,0c-8.99,0-16.28,5.64-16.28,15.93
		c0,1.06,0,216.1,0,216.1h22.14V154.52h36.17v-21.83H27.21V82.99z"/>
	<path class="st0" d="M160.43,270.36h-21.84V154.52H109.9v115.84H88.08V60.11c0-14.54,6.94-21.81,20.84-21.81h30.67
		c13.89,0,20.85,7.27,20.85,21.81V270.36z M138.59,60.11H109.9v72.58h28.69V60.11z"/>
	<path class="st0" d="M213.6,248.5h28.72v-93.98H213.6c-14.53,0-21.82-7.28-21.82-21.83V60.11c0-14.52,6.94-21.81,20.85-21.81h30.67
		c13.88,0,20.83,7.29,20.83,21.81V96.3h-21.82V60.11H213.6v72.58h28.72c14.54,0,21.82,7.27,21.82,21.83v93.98
		c0,14.59-7.28,21.86-21.82,21.86H213.6c-14.53,0-21.82-7.27-21.82-21.86v-65.1h21.82V248.5z"/>
	<path class="st0" d="M407.5,270.36V38.3h23.16v232.06H407.5z"/>
	<path class="st0" d="M462.96,60.11c0-14.54,6.94-21.81,20.84-21.81h30.67c13.89,0,20.85,7.27,20.85,21.81V248.5
		c0,14.59-7.27,21.86-21.83,21.86h-28.71c-14.55,0-21.82-7.27-21.82-21.86V60.11z M484.78,248.5h28.71V60.11h-28.71V248.5z"/>
	<path class="st0" d="M567.45,259.53c0,6.92,7.14,10.83,12.73,10.83h49.95v-21.9H590.2V38.3h-22.75V259.53z"/>
	<g>
		<path class="st0" d="M364.73,270.36h-61.42l30.72-18.56L364.73,270.36z"/>
	</g>
	<path class="st0" d="M370.18,60.16c0-14.52-6.95-21.81-20.83-21.81h-30.67c-13.92,0-20.85,7.29-20.85,21.81c0,1.33,0,3.23,0,5.62
		v66.96l0-0.02c0,53.39,0.01,115.78,0.01,115.78l21.8-13.32l0-175.03h28.7l0.01,36.19h21.82c0,0,0-0.03,0-0.03l0.02,0.04V60.16z"/>
</g>
</svg>
